<svg xmlns="http://www.w3.org/2000/svg" width="460" height="88" viewBox="0 0 460 88"><defs><style>.a{fill:#32508e;stroke-linecap:round;stroke-linejoin:round;}.a,.c{stroke:#707070;}.b,.c{fill:#fff;}.b{font-size:35px;font-family:TimesNewRomanPSMT, Times New Roman;}.d{stroke:none;}.e{fill:none;}</style></defs><g transform="translate(-1310 -207)"><g class="a" transform="translate(1310 207)"><rect class="d" width="460" height="86" rx="43"/><rect class="e" x="0.5" y="0.5" width="459" height="85" rx="42.5"/></g><text class="b" transform="translate(1581 259)"><tspan x="-154.073" y="0">Log in with Facebook</tspan></text><g class="c" transform="translate(1310 207)"><rect class="d" width="74" height="88" rx="37"/><rect class="e" x="0.5" y="0.5" width="73" height="87" rx="36.5"/></g><path d="M13.257,21.48V13.841h7.158V10A9.317,9.317,0,0,1,23.55,2.92,10.752,10.752,0,0,1,31.147,0h7.11V7.64h-7.11a1.623,1.623,0,0,0-1.253.66,2.425,2.425,0,0,0-.558,1.62v3.92h8.92v7.639H29.335V40H20.413V21.48Z" transform="translate(1316.743 227.685)"/></g></svg>