<svg xmlns="http://www.w3.org/2000/svg" width="460" height="86" viewBox="0 0 460 86"><defs><style>.a{fill:#4285f4;stroke-linecap:round;stroke-linejoin:round;}.a,.c{stroke:#707070;}.b,.c{fill:#fff;}.b{font-size:35px;font-family:TimesNewRomanPSMT, Times New Roman;}.d{stroke:none;}.e{fill:none;}</style></defs><g transform="translate(-1310 -348)"><g class="a" transform="translate(1310 348)"><rect class="d" width="460" height="86" rx="43"/><rect class="e" x="0.5" y="0.5" width="459" height="85" rx="42.5"/></g><text class="b" transform="translate(1565 397)"><tspan x="-137.556" y="0">Log in with Google</tspan></text><g class="c" transform="translate(1310 348)"><rect class="d" width="74" height="86" rx="37"/><rect class="e" x="0.5" y="0.5" width="73" height="85" rx="36.5"/></g><path d="M6.556,36.1q0-3.826,4.271-6.819a17.52,17.52,0,0,1,10.317-2.993h2.591A5.039,5.039,0,0,1,21.719,22.5a4.921,4.921,0,0,1,.769-2.552c-.321.029-.783.044-1.393.044a11.7,11.7,0,0,1-8.156-2.86A9.116,9.116,0,0,1,9.772,10.1q0-4,3.935-7A14.43,14.43,0,0,1,22.68.107H37.556l-3.311,2.2h-4.7A6.467,6.467,0,0,1,33.07,5.3a9.583,9.583,0,0,1,1.272,4.884q0,4.092-4.221,7.128a10.573,10.573,0,0,0-2.3,2.024,3.134,3.134,0,0,0-.528,1.848A3.47,3.47,0,0,0,28.583,23.3a18.487,18.487,0,0,0,2.593,2.155,12.06,12.06,0,0,1,4.055,3.872,9.946,9.946,0,0,1,1.128,4.972q0,3.96-3.935,6.886T21.77,44.107a24.033,24.033,0,0,1-10.8-2.2Q6.558,39.712,6.556,36.1Zm5.375-1.451a6.326,6.326,0,0,0,2.807,5.172,11.206,11.206,0,0,0,6.981,2.133q5.711,0,8.279-1.935a6.127,6.127,0,0,0,2.567-5.148,4.483,4.483,0,0,0-.192-1.408,6.749,6.749,0,0,0-.336-.9,3.271,3.271,0,0,0-.577-.835c-.255-.279-.478-.513-.67-.7a6.958,6.958,0,0,0-.936-.726c-.432-.294-.76-.513-.984-.659s-.624-.4-1.2-.771-.993-.623-1.248-.77a13.507,13.507,0,0,0-3.7-.528h-.192a13.121,13.121,0,0,0-7.342,2.068Q11.933,31.744,11.931,34.649Zm3.166-24.6A10.877,10.877,0,0,0,18,16.037a7.293,7.293,0,0,0,5.256,2.552h.19a5.067,5.067,0,0,0,4.32-2.288,7.394,7.394,0,0,0,1.294-4.356,12.368,12.368,0,0,0-.1-1.5,10.176,10.176,0,0,0-2.854-5.9,7.577,7.577,0,0,0-5.255-2.508h-.192A5.128,5.128,0,0,0,16.3,4.288,7.2,7.2,0,0,0,15,8.6,11.313,11.313,0,0,0,15.1,10.053Z" transform="translate(1323.443 366.263)"/></g></svg>