<svg xmlns="http://www.w3.org/2000/svg" width="120" height="105" viewBox="0 0 120 105"><defs><style>.a{fill:#fff;}</style></defs><path class="a" d="M60,.563c-33.145,0-60,23.5-60,52.5s26.855,52.5,60,52.5,60-23.5,60-52.5S93.145.563,60,.563Zm0,20.323c11.758,0,21.29,8.341,21.29,18.629S71.758,58.143,60,58.143,38.71,49.8,38.71,39.514,48.242,20.885,60,20.885Zm0,72.823c-14.2,0-26.927-5.631-35.444-14.437C29.1,71.776,38.008,66.611,48.387,66.611a6.7,6.7,0,0,1,1.718.233,34.247,34.247,0,0,0,19.79,0,6.7,6.7,0,0,1,1.718-.233c10.379,0,19.282,5.165,23.831,12.659C86.927,88.077,74.2,93.708,60,93.708Z" transform="translate(0 -0.563)"/></svg>